<svg width="20" height="22" viewBox="0 0 20 22" fill="none" xmlns="http://www.w3.org/2000/svg">
<path d="M18.5 6.34577L9.99997 11.068M9.99997 11.068L1.49997 6.34577M9.99997 11.068L10 20.568M19 15.1266V7.00946C19 6.66682 19 6.4955 18.9495 6.3427C18.9049 6.20752 18.8318 6.08344 18.7354 5.97875C18.6263 5.86041 18.4766 5.77721 18.177 5.61081L10.777 1.4997C10.4934 1.34214 10.3516 1.26336 10.2015 1.23248C10.0685 1.20514 9.93146 1.20514 9.79855 1.23248C9.64838 1.26336 9.50658 1.34214 9.22297 1.4997L1.82297 5.61081C1.52345 5.77721 1.37369 5.86042 1.26463 5.97875C1.16816 6.08344 1.09515 6.20752 1.05048 6.3427C1 6.4955 1 6.66682 1 7.00946V15.1266C1 15.4692 1 15.6405 1.05048 15.7933C1.09515 15.9285 1.16816 16.0526 1.26463 16.1573C1.37369 16.2756 1.52345 16.3588 1.82297 16.5252L9.22297 20.6363C9.50658 20.7939 9.64838 20.8727 9.79855 20.9036C9.93146 20.9309 10.0685 20.9309 10.2015 20.9036C10.3516 20.8727 10.4934 20.7939 10.777 20.6363L18.177 16.5252C18.4766 16.3588 18.6263 16.2756 18.7354 16.1573C18.8318 16.0526 18.9049 15.9285 18.9495 15.7933C19 15.6405 19 15.4692 19 15.1266Z" stroke="#20AB76" stroke-width="2" stroke-linecap="round" stroke-linejoin="round"/>
</svg>
