<svg width="22" height="23" viewBox="0 0 22 23" fill="none" xmlns="http://www.w3.org/2000/svg">
<path d="M8 1.75403V3.75403M14 1.75403V3.75403M8 19.754V21.754M14 19.754V21.754M19 8.75403H21M19 13.754H21M1 8.75403H3M1 13.754H3M7.8 19.754H14.2C15.8802 19.754 16.7202 19.754 17.362 19.427C17.9265 19.1394 18.3854 18.6805 18.673 18.116C19 17.4743 19 16.6342 19 14.954V8.55403C19 6.87387 19 6.03379 18.673 5.39206C18.3854 4.82757 17.9265 4.36863 17.362 4.08101C16.7202 3.75403 15.8802 3.75403 14.2 3.75403H7.8C6.11984 3.75403 5.27976 3.75403 4.63803 4.08101C4.07354 4.36863 3.6146 4.82757 3.32698 5.39206C3 6.03379 3 6.87387 3 8.55403V14.954C3 16.6342 3 17.4743 3.32698 18.116C3.6146 18.6805 4.07354 19.1394 4.63803 19.427C5.27976 19.754 6.11984 19.754 7.8 19.754ZM9.6 14.754H12.4C12.9601 14.754 13.2401 14.754 13.454 14.645C13.6422 14.5492 13.7951 14.3962 13.891 14.208C14 13.9941 14 13.7141 14 13.154V10.354C14 9.79398 14 9.51395 13.891 9.30004C13.7951 9.11188 13.6422 8.9589 13.454 8.86302C13.2401 8.75403 12.9601 8.75403 12.4 8.75403H9.6C9.03995 8.75403 8.75992 8.75403 8.54601 8.86302C8.35785 8.9589 8.20487 9.11188 8.10899 9.30004C8 9.51395 8 9.79398 8 10.354V13.154C8 13.7141 8 13.9941 8.10899 14.208C8.20487 14.3962 8.35785 14.5492 8.54601 14.645C8.75992 14.754 9.03995 14.754 9.6 14.754Z" stroke="#20AB76" stroke-width="2" stroke-linecap="round" stroke-linejoin="round"/>
</svg>
