<svg width="22" height="23" viewBox="0 0 22 23" fill="none" xmlns="http://www.w3.org/2000/svg">
<path d="M5 5.94812H5.01M5 17.9481H5.01M4.2 9.94812H17.8C18.9201 9.94812 19.4802 9.94812 19.908 9.73013C20.2843 9.53839 20.5903 9.23243 20.782 8.8561C21 8.42828 21 7.86823 21 6.74812V5.14812C21 4.02802 21 3.46796 20.782 3.04014C20.5903 2.66381 20.2843 2.35785 19.908 2.16611C19.4802 1.94812 18.9201 1.94812 17.8 1.94812H4.2C3.07989 1.94812 2.51984 1.94812 2.09202 2.16611C1.71569 2.35785 1.40973 2.66381 1.21799 3.04014C1 3.46796 1 4.02802 1 5.14812V6.74812C1 7.86823 1 8.42828 1.21799 8.8561C1.40973 9.23243 1.71569 9.53839 2.09202 9.73013C2.51984 9.94812 3.0799 9.94812 4.2 9.94812ZM4.2 21.9481H17.8C18.9201 21.9481 19.4802 21.9481 19.908 21.7301C20.2843 21.5384 20.5903 21.2324 20.782 20.8561C21 20.4283 21 19.8682 21 18.7481V17.1481C21 16.028 21 15.468 20.782 15.0401C20.5903 14.6638 20.2843 14.3579 19.908 14.1661C19.4802 13.9481 18.9201 13.9481 17.8 13.9481H4.2C3.07989 13.9481 2.51984 13.9481 2.09202 14.1661C1.71569 14.3579 1.40973 14.6638 1.21799 15.0401C1 15.468 1 16.028 1 17.1481V18.7481C1 19.8682 1 20.4283 1.21799 20.8561C1.40973 21.2324 1.71569 21.5384 2.09202 21.7301C2.51984 21.9481 3.0799 21.9481 4.2 21.9481Z" stroke="#20AB76" stroke-width="2" stroke-linecap="round" stroke-linejoin="round"/>
</svg>
